<svg width="37" height="37" viewBox="0 0 37 37" fill="none" xmlns="http://www.w3.org/2000/svg">
<g clip-path="url(#clip0_158_8)">
<path d="M18.5002 3.0835C9.99016 3.0835 3.0835 9.99016 3.0835 18.5002C3.0835 27.0102 9.99016 33.9168 18.5002 33.9168C27.0102 33.9168 33.9168 27.0102 33.9168 18.5002C33.9168 9.99016 27.0102 3.0835 18.5002 3.0835ZM18.5002 9.25016C21.4756 9.25016 23.896 11.6706 23.896 14.646C23.896 17.6214 21.4756 20.0418 18.5002 20.0418C15.5247 20.0418 13.1043 17.6214 13.1043 14.646C13.1043 11.6706 15.5247 9.25016 18.5002 9.25016ZM18.5002 30.8335C15.3706 30.8335 11.6706 29.5693 9.03433 26.3935C11.6397 24.3585 14.9235 23.1252 18.5002 23.1252C22.0768 23.1252 25.3606 24.3585 27.966 26.3935C25.3297 29.5693 21.6297 30.8335 18.5002 30.8335Z" fill="black"/>
</g>
<defs>
<clipPath id="clip0_158_8">
<rect width="37" height="37" fill="white"/>
</clipPath>
</defs>
</svg>
