<svg width="167" height="151" viewBox="0 0 167 151" fill="none" xmlns="http://www.w3.org/2000/svg">
<g clip-path="url(#clip0_74_44)">
<path d="M49.902 90.0036L55.1529 101.43H52.3458L50.9423 98.3754H46.5912L45.1216 101.43H43.2557L48.7131 90.0036H49.902ZM47.1114 97.3351H50.4799L48.8204 93.7189L47.1114 97.3351ZM56.7299 90.2347H60.9406C61.6671 90.2347 62.3001 90.3118 62.8395 90.4659C63.3844 90.6145 63.8357 90.8264 64.1935 91.1016C64.5568 91.3713 64.8292 91.6933 65.0109 92.0676C65.1925 92.4419 65.2833 92.8492 65.2833 93.2895C65.2833 93.6088 65.22 93.9115 65.0934 94.1977C64.9723 94.4784 64.799 94.7399 64.5733 94.9821C64.3531 95.2187 64.0834 95.4307 63.7642 95.6178C63.4504 95.7994 63.1037 95.9508 62.7239 96.0719L66.7117 101.43H63.7229L59.9663 96.3691H59.4792V101.43H56.7299V90.2347ZM59.4792 95.3866H60.0737C60.4094 95.3866 60.7204 95.3398 61.0066 95.2463C61.2928 95.1527 61.5405 95.0206 61.7497 94.85C61.9588 94.6738 62.1212 94.4592 62.2368 94.206C62.3579 93.9528 62.4184 93.6666 62.4184 93.3473C62.4184 93.0501 62.3716 92.7777 62.2781 92.53C62.19 92.2823 62.0662 92.0704 61.9065 91.8942C61.7469 91.7126 61.5543 91.5722 61.3286 91.4732C61.1029 91.3741 60.858 91.3246 60.5938 91.3246H59.4792V95.3866ZM76.5613 90.2347V91.1925H72.6892V101.43H69.9481V91.1925H66.0677V90.2347H76.5613ZM78.3612 90.2347H82.5719C83.2984 90.2347 83.9314 90.3118 84.4708 90.4659C85.0157 90.6145 85.467 90.8264 85.8248 91.1016C86.1881 91.3713 86.4605 91.6933 86.6422 92.0676C86.8238 92.4419 86.9146 92.8492 86.9146 93.2895C86.9146 93.6088 86.8513 93.9115 86.7247 94.1977C86.6037 94.4784 86.4303 94.7399 86.2046 94.9821C85.9844 95.2187 85.7147 95.4307 85.3955 95.6178C85.0818 95.7994 84.735 95.9508 84.3552 96.0719L88.343 101.43H85.3542L81.5976 96.3691H81.1105V101.43H78.3612V90.2347ZM81.1105 95.3866H81.705C82.0407 95.3866 82.3517 95.3398 82.6379 95.2463C82.9241 95.1527 83.1718 95.0206 83.381 94.85C83.5901 94.6738 83.7525 94.4592 83.8681 94.206C83.9892 93.9528 84.0497 93.6666 84.0497 93.3473C84.0497 93.0501 84.0029 92.7777 83.9094 92.53C83.8213 92.2823 83.6975 92.0704 83.5378 91.8942C83.3782 91.7126 83.1856 91.5722 82.9599 91.4732C82.7342 91.3741 82.4893 91.3246 82.2251 91.3246H81.1105V95.3866ZM95.0057 101.678C94.1031 101.678 93.2609 101.532 92.4793 101.24C91.6977 100.949 91.0207 100.541 90.4483 100.018C89.8759 99.49 89.4245 98.8652 89.0943 98.1442C88.7695 97.4177 88.6072 96.6223 88.6072 95.7581C88.6072 94.9105 88.7695 94.1344 89.0943 93.4299C89.4245 92.7199 89.8759 92.1116 90.4483 91.6053C91.0207 91.0989 91.6977 90.7053 92.4793 90.4246C93.2609 90.1439 94.1031 90.0036 95.0057 90.0036C95.9084 90.0036 96.7478 90.1467 97.5239 90.4329C98.3055 90.7136 98.9825 91.1071 99.5549 91.6135C100.133 92.1199 100.587 92.7254 100.917 93.4299C101.247 94.1289 101.413 94.8967 101.413 95.7334C101.413 96.3278 101.338 96.8893 101.19 97.4177C101.041 97.9405 100.829 98.4222 100.554 98.8625C100.279 99.3028 99.9485 99.6964 99.5632 100.043C99.1779 100.39 98.7458 100.684 98.267 100.927C97.7936 101.169 97.2817 101.353 96.7313 101.48C96.1809 101.612 95.6057 101.678 95.0057 101.678ZM95.0057 100.737C95.5507 100.737 96.0323 100.613 96.4506 100.365C96.8689 100.112 97.2184 99.7652 97.4991 99.3248C97.7798 98.8845 97.9917 98.3616 98.1349 97.7562C98.2835 97.1452 98.3578 96.4792 98.3578 95.7581C98.3578 95.0481 98.2835 94.3986 98.1349 93.8097C97.9917 93.2207 97.7798 92.7144 97.4991 92.2905C97.2184 91.8667 96.8689 91.5365 96.4506 91.2998C96.0323 91.0631 95.5507 90.9448 95.0057 90.9448C94.4553 90.9448 93.971 91.0631 93.5526 91.2998C93.1343 91.5365 92.7848 91.8667 92.5041 92.2905C92.2234 92.7144 92.0115 93.2207 91.8684 93.8097C91.7253 94.3986 91.6537 95.0481 91.6537 95.7581C91.6537 96.4792 91.7253 97.1452 91.8684 97.7562C92.0115 98.3616 92.2234 98.8845 92.5041 99.3248C92.7848 99.7652 93.1343 100.112 93.5526 100.365C93.971 100.613 94.4553 100.737 95.0057 100.737ZM108.752 90.0036L114.003 101.43H111.196L109.793 98.3754H105.442L103.972 101.43H102.106L107.563 90.0036H108.752ZM105.962 97.3351H109.33L107.671 93.7189L105.962 97.3351ZM115.58 90.2347H119.642C120.688 90.2347 121.649 90.3586 122.524 90.6063C123.399 90.8484 124.153 91.2035 124.786 91.6713C125.419 92.1392 125.909 92.7144 126.256 93.3969C126.608 94.0794 126.784 94.8582 126.784 95.7334C126.784 96.5205 126.635 97.2608 126.338 97.9543C126.041 98.6423 125.606 99.245 125.034 99.7624C124.467 100.28 123.768 100.687 122.937 100.984C122.105 101.282 121.153 101.43 120.08 101.43H115.58V90.2347ZM118.33 100.283H119.791C120.33 100.283 120.837 100.183 121.31 99.9853C121.789 99.7872 122.207 99.4955 122.565 99.1102C122.923 98.7249 123.204 98.2515 123.407 97.6901C123.616 97.1287 123.721 96.4847 123.721 95.7581C123.721 95.1307 123.622 94.55 123.424 94.0161C123.231 93.4767 122.961 93.0116 122.615 92.6208C122.268 92.23 121.852 91.9245 121.368 91.7043C120.889 91.4787 120.363 91.3658 119.791 91.3658H118.33V100.283Z" fill="#4F15AF"/>
<path d="M65.6132 29.1619C79.5994 40.504 92.6115 57.7606 89.689 76.7569C88.3669 82.254 86.0706 80.8623 83.3569 77.4527C70.4144 60.4048 48.0782 49.6194 37.1536 74.4606C34.579 79.8881 37.919 84.0631 43.764 83.576C54.5494 82.0452 58.3069 69.5898 61.1598 60.544C65.6827 43.0785 85.1661 27.4919 103.675 32.154C112.582 36.7465 107.294 50.3152 100.474 54.4902L98.5956 51.5677C102.353 49.1323 104.58 44.4006 104.719 39.9473C105.067 34.4502 99.8481 34.311 95.6036 34.5894C85.7923 35.494 76.5377 40.3648 69.9273 47.9494C59.8377 58.1085 60.9511 80.236 43.8336 83.7152C19.8273 86.9856 47.104 28.5356 84.7486 76.1306C85.5836 77.0352 86.5577 78.1485 87.184 78.566C86.4881 78.6356 87.0448 78.566 87.184 77.9398C87.3927 77.4527 87.5319 76.896 87.6015 76.2698C89.6194 58.526 76.3986 42.8698 61.9948 34.1719L65.5436 29.0923L65.6132 29.1619Z" fill="url(#paint0_linear_74_44)"/>
<path d="M80.4349 32.9189C104.093 41.1994 109.451 72.9294 88.924 87.4723C107.294 72.5814 101.658 43.4956 79.1128 36.9548L80.3653 32.9189H80.4349Z" fill="url(#paint1_linear_74_44)"/>
<path d="M99.9854 51.9171C108.196 56.5096 117.799 60.4063 122.67 49.9688L128.375 53.3088C119.817 65.625 108.544 61.3804 99.0112 53.5871L99.9854 51.8475V51.9171Z" fill="url(#paint2_linear_74_44)"/>
</g>
<defs>
<linearGradient id="paint0_linear_74_44" x1="34.7896" y1="67.2226" x2="109.634" y2="51.8511" gradientUnits="userSpaceOnUse">
<stop stop-color="#B180FF"/>
<stop offset="1" stop-color="#5814C5"/>
</linearGradient>
<linearGradient id="paint1_linear_74_44" x1="79.1128" y1="70.908" x2="102.91" y2="69.4053" gradientUnits="userSpaceOnUse">
<stop stop-color="#B180FF"/>
<stop offset="1" stop-color="#5814C5"/>
</linearGradient>
<linearGradient id="paint2_linear_74_44" x1="99.0112" y1="57.6929" x2="125.76" y2="46.8711" gradientUnits="userSpaceOnUse">
<stop stop-color="#B180FF"/>
<stop offset="1" stop-color="#5814C5"/>
</linearGradient>
<clipPath id="clip0_74_44">
<rect width="167" height="167" fill="white" transform="translate(0 -16)"/>
</clipPath>
</defs>
</svg>
