<svg width="37" height="37" viewBox="0 0 37 37" fill="none" xmlns="http://www.w3.org/2000/svg">
<path d="M23.8963 21.5824H22.6784L22.2467 21.1661C23.8098 19.3531 24.6689 17.0386 24.6672 14.6449C24.6672 12.6629 24.0795 10.7255 22.9783 9.07759C21.8772 7.42967 20.3122 6.14527 18.4811 5.38682C16.6501 4.62837 14.6352 4.42992 12.6914 4.81658C10.7475 5.20323 8.96197 6.15762 7.56053 7.55906C6.15909 8.9605 5.2047 10.746 4.81804 12.6899C4.43138 14.6337 4.62983 16.6486 5.38828 18.4797C6.14674 20.3107 7.43113 21.8758 9.07905 22.9769C10.727 24.078 12.6644 24.6657 14.6463 24.6657C17.1284 24.6657 19.4101 23.7561 21.1676 22.2453L21.5838 22.6769V23.8949L29.2922 31.5878L31.5892 29.2907L23.8963 21.5824ZM14.6463 21.5824C10.8076 21.5824 7.70883 18.4836 7.70883 14.6449C7.70883 10.8061 10.8076 7.70736 14.6463 7.70736C18.4851 7.70736 21.5838 10.8061 21.5838 14.6449C21.5838 18.4836 18.4851 21.5824 14.6463 21.5824Z" fill="black"/>
</svg>
